<svg width="22" height="23" viewBox="0 0 22 23" fill="none" xmlns="http://www.w3.org/2000/svg">
<path d="M15.1447 9.88281C15.1447 9.38661 14.76 8.98438 14.2853 8.98438H5.43378C4.95914 8.98438 4.5744 9.38661 4.5744 9.88281C4.5744 10.379 4.95914 10.7812 5.43378 10.7812H14.2853C14.76 10.7812 15.1447 10.379 15.1447 9.88281Z" fill="black"/>
<path d="M5.43378 12.5781C4.95914 12.5781 4.5744 12.9804 4.5744 13.4766C4.5744 13.9728 4.95914 14.375 5.43378 14.375H10.8096C11.2843 14.375 11.669 13.9728 11.669 13.4766C11.669 12.9804 11.2843 12.5781 10.8096 12.5781H5.43378Z" fill="black"/>
<path d="M7.4533 21.2031H4.57916C3.63144 21.2031 2.86041 20.397 2.86041 19.4062V3.59375C2.86041 2.60295 3.63144 1.79688 4.57916 1.79688H15.1447C16.0924 1.79688 16.8635 2.60295 16.8635 3.59375V9.11914C16.8635 9.61535 17.2482 10.0176 17.7228 10.0176C18.1975 10.0176 18.5822 9.61535 18.5822 9.11914V3.59375C18.5822 1.61216 17.0401 0 15.1447 0H4.57916C2.68373 0 1.14166 1.61216 1.14166 3.59375V19.4062C1.14166 21.3878 2.68373 23 4.57916 23H7.4533C7.92793 23 8.31268 22.5978 8.31268 22.1016C8.31268 21.6054 7.92793 21.2031 7.4533 21.2031Z" fill="black"/>
<path d="M20.1043 13.0081C19.0991 11.9572 17.4636 11.9572 16.459 13.0074L11.7409 17.9291C11.6407 18.0336 11.5668 18.1623 11.5256 18.3039L10.4981 21.8404C10.407 22.154 10.4864 22.4944 10.7053 22.729C10.8692 22.9046 11.092 23 11.3205 23C11.3969 23 11.4741 22.9893 11.5498 22.9674L15.0185 21.9629C15.1612 21.9215 15.2913 21.8423 15.3962 21.7329L20.1044 16.8199C21.1096 15.769 21.1096 14.0591 20.1043 13.0081ZM14.3419 20.2943L12.5968 20.7996L13.1075 19.0419L16.291 15.7211L17.5066 16.9919L14.3419 20.2943ZM18.8897 15.5488L18.7232 15.7225L17.5078 14.4519L17.6737 14.2788C18.0088 13.9285 18.554 13.9285 18.8891 14.2788C19.2241 14.6291 19.2241 15.1991 18.8897 15.5488Z" fill="black"/>
<path d="M14.2853 5.39062H5.43378C4.95914 5.39062 4.5744 5.79286 4.5744 6.28906C4.5744 6.78527 4.95914 7.1875 5.43378 7.1875H14.2853C14.76 7.1875 15.1447 6.78527 15.1447 6.28906C15.1447 5.79286 14.76 5.39062 14.2853 5.39062Z" fill="black"/>
</svg>
