<svg width="28" height="25" viewBox="0 0 28 25" fill="none" xmlns="http://www.w3.org/2000/svg">
<path d="M27.53 10.941L23.2865 7.00058V2.44872C23.2865 1.62568 22.5682 0.958676 21.6806 0.958676C20.7949 0.958676 20.0767 1.62568 20.0767 2.44872V4.02012L16.917 1.08605C15.3549 -0.363739 12.6388 -0.361168 11.0802 1.08868L0.469768 10.941C-0.156589 11.5238 -0.156589 12.4667 0.469768 13.0486C1.09641 13.6312 2.11388 13.6312 2.7403 13.0486L13.3497 3.19603C13.6953 2.87677 14.3045 2.87677 14.6483 3.19508L25.2595 13.0486C25.5742 13.34 25.9844 13.4849 26.3945 13.4849C26.8055 13.4849 27.2164 13.3398 27.5301 13.0486C28.1566 12.4668 28.1566 11.5238 27.53 10.941Z" fill="black"/>
<path d="M14.5574 6.0245C14.2491 5.73842 13.75 5.73842 13.4426 6.0245L4.10967 14.6882C3.96232 14.825 3.87878 15.0118 3.87878 15.2066V21.5256C3.87878 23.0084 5.17355 24.2107 6.77036 24.2107H11.3911V17.5658H16.6079V24.2107H21.2287C22.8254 24.2107 24.1202 23.0084 24.1202 21.5257V15.2066C24.1202 15.0118 24.0374 14.825 23.8893 14.6882L14.5574 6.0245Z" fill="black"/>
</svg>
