<svg width="29" height="30" viewBox="0 0 29 30" fill="none" xmlns="http://www.w3.org/2000/svg">
<g clip-path="url(#clip0)">
<path d="M18.1248 16.2498C17.4566 16.2498 16.9166 16.8098 16.9166 17.4997V22.4998C16.9166 23.1885 16.3752 23.7497 15.7081 23.7497H12.0831V4.99988C12.0831 3.93238 11.4258 2.97864 10.4375 2.62365L10.0797 2.49982H15.7081C16.3752 2.49982 16.9166 3.06104 16.9166 3.74997V7.49993C16.9166 8.18977 17.4566 8.74984 18.1248 8.74984C18.793 8.74984 19.3331 8.18977 19.3331 7.49993V3.74997C19.3331 1.68249 17.7066 0 15.7081 0H2.71872C2.6727 0 2.6342 0.0212858 2.58951 0.0274656C2.53132 0.0224302 2.47579 0 2.41672 0C1.0839 0 0 1.12105 0 2.49982V24.9996C0 26.0671 0.657334 27.0209 1.64566 27.3758L8.91749 29.8835C9.16396 29.9622 9.4091 29.9997 9.66664 29.9997C10.9995 29.9997 12.0831 28.8784 12.0831 27.4997V26.2498H15.7081C17.7066 26.2498 19.3331 24.5673 19.3331 22.4998V17.4997C19.3331 16.8098 18.793 16.2498 18.1248 16.2498Z" fill="black"/>
<path d="M28.6457 11.6165L23.8123 6.61659C23.4669 6.25908 22.9472 6.1515 22.4954 6.34513C22.0447 6.539 21.7498 6.99515 21.7498 7.50029V11.2502H16.9166C16.2495 11.2502 15.7081 11.8101 15.7081 12.5002C15.7081 13.1902 16.2495 13.7501 16.9166 13.7501H21.7498V17.5C21.7498 18.0052 22.0447 18.4613 22.4954 18.6552C22.9472 18.8488 23.4669 18.7412 23.8123 18.384L28.6457 13.3839C29.1181 12.8952 29.1181 12.1051 28.6457 11.6165Z" fill="black"/>
</g>
<defs>
<clipPath id="clip0">
<rect width="29" height="30" fill="white"/>
</clipPath>
</defs>
</svg>
