<svg width="149" height="140" viewBox="0 0 149 140" fill="none" xmlns="http://www.w3.org/2000/svg">
<g clip-path="url(#clip0)">
<path d="M148.709 69.7266C148.709 108.387 115.355 139.727 74.209 139.727C33.0632 139.727 -0.291016 108.387 -0.291016 69.7266C-0.291016 31.0661 33.0632 -0.273438 74.209 -0.273438C115.355 -0.273438 148.709 31.0661 148.709 69.7266Z" fill="#3B7874"/>
<path d="M67.3678 117.47H81.0512V134.184H67.3678V117.47Z" fill="#3B3B3B"/>
<path d="M146.332 23.4323V87.3291C144.903 92.5287 142.848 97.4922 140.25 102.149C137.83 106.498 134.935 110.578 131.632 114.327C129.869 116.33 127.99 118.238 126.004 120.04H22.4162C20.4303 118.238 18.5512 116.33 16.7869 114.327C13.4845 110.578 10.5903 106.498 8.16895 102.149C5.57255 97.4922 3.51725 92.5287 2.08832 87.3291V23.4323C2.08832 20.6948 4.45055 18.4752 7.36411 18.4752H141.055C143.97 18.4752 146.332 20.6948 146.332 23.4323Z" fill="#4A4A4A"/>
<path d="M140.25 24.1893V102.149C137.83 106.497 134.935 110.577 131.632 114.327H16.7869C13.4845 110.577 10.5903 106.497 8.16895 102.149V24.1893H140.25Z" fill="#D6B336"/>
<path d="M108.516 131.878C98.2473 136.892 86.5828 139.726 74.2101 139.726C61.8363 139.726 50.1718 136.892 39.9033 131.878C48.1836 130.403 60.4835 129.469 74.2101 129.469C87.939 129.469 100.237 130.403 108.516 131.878Z" fill="#4A4A4A"/>
<path d="M8.6713 44.8535L104.343 -0.269043L112.161 14.3673L16.4901 59.4899L8.6713 44.8535Z" fill="#3B3B3B"/>
<path d="M139.746 92.5094L65.848 114.327H34.8287L19.5788 68.7172L121.705 38.5664L139.746 92.5094Z" fill="#3B3B3B"/>
<path d="M75.3968 13.3812L91.0957 5.97595L108.238 16.2149L92.5383 23.6201L75.3968 13.3812Z" fill="#EFEFEF"/>
<path d="M43.9979 28.1909L59.6969 20.7856L76.8395 31.0257L61.1394 38.4309L43.9979 28.1909Z" fill="#EFEFEF"/>
<path d="M12.5989 43.0012L28.2989 35.5959L45.4404 45.836L29.7404 53.2412L12.5989 43.0012Z" fill="#EFEFEF"/>
<path d="M16.4935 59.4885L118.621 29.3335L123.846 44.9568L21.7193 75.1129L16.4935 59.4885Z" fill="#EFEFEF"/>
<path d="M92.9442 54.0862L109.703 49.1376L114.428 30.5759L97.6698 35.5234L92.9442 54.0862Z" fill="#3B3B3B"/>
<path d="M59.4262 63.9812L76.1846 59.0337L80.9114 40.4709L64.1518 45.4195L59.4262 63.9812Z" fill="#3B3B3B"/>
<path d="M25.9095 73.8763L42.6679 68.9288L47.3935 50.3671L30.6351 55.3146L25.9095 73.8763Z" fill="#3B3B3B"/>
<path d="M35.3436 84.8778L81.1695 71.3458L82.8156 76.2666L36.9897 89.7986L35.3436 84.8778Z" fill="#EFEFEF"/>
<path d="M39.5407 97.426L107.363 77.3988L109.009 82.3207L41.1868 102.347L39.5407 97.426Z" fill="#EFEFEF"/>
</g>
<defs>
<clipPath id="clip0">
<rect width="149" height="140" fill="white"/>
</clipPath>
</defs>
</svg>
