<svg width="22" height="21" viewBox="0 0 22 21" fill="none" xmlns="http://www.w3.org/2000/svg">
<g clip-path="url(#clip0)">
<path d="M19.3902 14.5422C22.8707 11.2198 22.8706 5.81391 19.3902 2.49154C15.9096 -0.830837 10.2463 -0.830837 6.76582 2.49154C3.81302 5.31012 3.36582 9.50207 5.42302 12.7755C5.42302 12.7755 5.57079 13.0122 5.37121 13.2025C4.23266 14.2893 0.816782 17.5499 0.816782 17.5499C-0.0897386 18.4152 -0.305543 19.6251 0.498355 20.3926L0.636767 20.5246C1.44067 21.2921 2.70828 21.0862 3.61473 20.2208C3.61473 20.2208 7.02337 16.9671 8.15959 15.8826C8.36873 15.6829 8.61657 15.824 8.61657 15.824C12.0458 17.7876 16.4374 17.3608 19.3902 14.5422ZM8.41388 12.969C5.84208 10.5141 5.84215 6.51977 8.41395 4.06488C10.9857 1.61005 15.1703 1.60998 17.742 4.06488C20.3138 6.5197 20.3138 10.5141 17.742 12.969C15.1702 15.4238 10.9857 15.4238 8.41388 12.969Z" fill="black"/>
<path d="M8.98299 8.0114C8.86329 8.0114 8.7416 7.98894 8.62431 7.94166C8.15578 7.75237 7.93657 7.23634 8.13487 6.78903C9.38122 3.97755 12.7914 2.65817 15.7366 3.84787C16.2052 4.03715 16.4244 4.55319 16.2261 5.00049C16.0277 5.4478 15.4872 5.6569 15.0185 5.46769C13.009 4.65602 10.6821 5.55624 9.83189 7.4744C9.68313 7.80987 9.34196 8.0114 8.98299 8.0114Z" fill="black"/>
</g>
<defs>
<clipPath id="clip0">
<rect width="22" height="21" fill="white"/>
</clipPath>
</defs>
</svg>
