<svg width="24" height="24" viewBox="0 0 24 24" fill="none" xmlns="http://www.w3.org/2000/svg">
<path d="M23.4435 14.5937L22.1329 13.8369C20.7191 13.0206 20.7178 10.9799 22.1329 10.1631L23.4435 9.40631C23.7797 9.21204 23.8949 8.7821 23.7008 8.44592L20.8769 3.55426C20.683 3.21826 20.2527 3.10272 19.9164 3.29681L18.6057 4.05359C17.1921 4.86969 15.4246 3.85089 15.4246 2.21667V0.703125C15.4246 0.314758 15.1098 0 14.7215 0H9.07359C8.68541 0 8.37047 0.314758 8.37047 0.703125V2.21667C8.37047 3.84924 6.6046 4.87061 5.18938 4.05359L3.87871 3.29681C3.54271 3.10272 3.11241 3.2179 2.91814 3.55426L0.0942861 8.44592C-0.0998057 8.7821 0.0153676 9.21222 0.351549 9.40631L1.66222 10.1631C3.07598 10.9794 3.07726 13.0201 1.66222 13.8369L0.351732 14.5937C0.0153676 14.788 -0.0998057 15.2179 0.0942861 15.5541L2.91814 20.4457C3.11205 20.7817 3.54234 20.8975 3.87871 20.7032L5.18938 19.9464C6.60277 19.1301 8.37047 20.1489 8.37047 21.7833V23.2969C8.37047 23.6852 8.68523 24 9.07359 24H14.7213C15.1097 24 15.4244 23.6852 15.4244 23.2969V21.7833C15.4244 20.1511 17.1903 19.1292 18.6057 19.9464L19.9164 20.7032C20.2524 20.8973 20.6827 20.7821 20.8768 20.4457L23.7008 15.5541C23.8949 15.2179 23.7797 14.788 23.4435 14.5937V14.5937ZM20.0105 19.1338L19.3088 18.7286C16.9576 17.3708 14.0184 19.0659 14.0184 21.7833V22.5938H9.77672V21.7833C9.77672 19.0682 6.83934 17.3698 4.48625 18.7286L3.78459 19.1338L1.66368 15.46L2.36534 15.0547C4.71642 13.6974 4.7188 10.3041 2.36553 8.94525L1.66368 8.54004L3.78459 4.86621L4.48625 5.27142C6.83751 6.62915 9.77672 4.93414 9.77672 2.21667V1.40625H14.0184V2.21667C14.0184 4.93176 16.9556 6.63025 19.3088 5.27142L20.0105 4.86621L22.1314 8.54004L21.4297 8.94525C19.0787 10.3026 19.0763 13.6959 21.4296 15.0547L22.1314 15.46L20.0105 19.1338Z" fill="black"/>
<path d="M11.8976 7.07812C9.18384 7.07812 6.97614 9.28601 6.97614 12C6.97614 14.714 9.18384 16.9219 11.8976 16.9219C14.6113 16.9219 16.819 14.714 16.819 12C16.819 9.28601 14.6113 7.07812 11.8976 7.07812ZM11.8976 15.5156C9.95929 15.5156 8.38239 13.9385 8.38239 12C8.38239 10.0615 9.95929 8.48438 11.8976 8.48438C13.8358 8.48438 15.4127 10.0615 15.4127 12C15.4127 13.9385 13.8358 15.5156 11.8976 15.5156Z" fill="black"/>
</svg>
