<svg width="26" height="25" viewBox="0 0 26 25" fill="none" xmlns="http://www.w3.org/2000/svg">
<path d="M13.0018 0C9.28749 0 6.25122 2.91949 6.25122 6.49094C6.25122 10.0624 9.28749 12.9819 13.0018 12.9819C16.7161 12.9819 19.7524 10.0624 19.7524 6.49094C19.7524 2.91949 16.7161 0 13.0018 0Z" fill="black"/>
<path d="M24.5869 18.169C24.41 17.7438 24.1742 17.347 23.9089 16.9785C22.5529 15.051 20.4599 13.7755 18.1017 13.4637C17.8069 13.4354 17.4826 13.492 17.2468 13.6621C16.0087 14.5408 14.5348 14.9943 13.0019 14.9943C11.4689 14.9943 9.99505 14.5408 8.75695 13.6621C8.5211 13.492 8.19683 13.407 7.90207 13.4637C5.54379 13.7755 3.42136 15.051 2.09484 16.9785C1.82954 17.347 1.59369 17.7722 1.41686 18.169C1.32844 18.3391 1.35789 18.5375 1.44631 18.7075C1.68216 19.1044 1.97692 19.5012 2.24222 19.8413C2.6549 20.3799 3.0971 20.8617 3.59825 21.3152C4.01093 21.712 4.48258 22.0805 4.95428 22.449C7.28305 24.1214 10.0835 25 12.9724 25C15.8613 25 18.6618 24.1213 20.9905 22.449C21.4622 22.1089 21.9338 21.712 22.3466 21.3152C22.8182 20.8617 23.2899 20.3799 23.7026 19.8413C23.9974 19.4728 24.2627 19.1044 24.4985 18.7075C24.6458 18.5375 24.6753 18.339 24.5869 18.169Z" fill="black"/>
</svg>
